<?xml version="1.0" encoding="utf-8"?>
<!-- Generator: Adobe Illustrator 16.0.0, SVG Export Plug-In . SVG Version: 6.00 Build 0)  -->
<!DOCTYPE svg PUBLIC "-//W3C//DTD SVG 1.1//EN" "http://www.w3.org/Graphics/SVG/1.1/DTD/svg11.dtd" [
	<!ENTITY ns_extend "http://ns.adobe.com/Extensibility/1.0/">
	<!ENTITY ns_ai "http://ns.adobe.com/AdobeIllustrator/10.0/">
	<!ENTITY ns_graphs "http://ns.adobe.com/Graphs/1.0/">
	<!ENTITY ns_vars "http://ns.adobe.com/Variables/1.0/">
	<!ENTITY ns_imrep "http://ns.adobe.com/ImageReplacement/1.0/">
	<!ENTITY ns_sfw "http://ns.adobe.com/SaveForWeb/1.0/">
	<!ENTITY ns_custom "http://ns.adobe.com/GenericCustomNamespace/1.0/">
	<!ENTITY ns_adobe_xpath "http://ns.adobe.com/XPath/1.0/">
]>
<svg version="1.1" id="Layer_1" xmlns:x="&ns_extend;" xmlns:i="&ns_ai;" xmlns:graph="&ns_graphs;"
	 xmlns="http://www.w3.org/2000/svg" xmlns:xlink="http://www.w3.org/1999/xlink" x="0px" y="0px" width="31.813px"
	 height="31.813px" viewBox="-10.173 -9.78 31.813 31.813" enable-background="new -10.173 -9.78 31.813 31.813"
	 xml:space="preserve">
<metadata>
	<sfw  xmlns="&ns_sfw;">
		<slices></slices>
		<sliceSourceBounds  height="31.813" width="31.813" y="405.47" x="280.25" bottomLeftOrigin="true"></sliceSourceBounds>
	</sfw>
</metadata>
<circle fill="#FFFFFF" cx="5.658" cy="6.126" r="15.906"/>
<rect x="-1.342" y="-0.768" fill="#5EABB0" width="14" height="13.422"/>
<g>
	<path fill="#FFFFFF" d="M-0.175,0.896h3.304V4.2h-3.304V0.896L-0.175,0.896z M4.02,0.896h7.55v1.102H4.02V0.896L4.02,0.896z
		 M4.02,3.203h7.55v1.102H4.02V3.203L4.02,3.203z M-0.254,5.353h9.582v1.101h-9.582V5.353L-0.254,5.353z M-0.254,7.688h8.009v1.099
		h-8.009V7.688L-0.254,7.688z M-0.254,9.889h6.278v1.102h-6.278V9.889L-0.254,9.889z"/>
</g>
</svg>
