<?xml version="1.0" encoding="utf-8"?>
<!-- Generator: Adobe Illustrator 16.0.0, SVG Export Plug-In . SVG Version: 6.00 Build 0)  -->
<!DOCTYPE svg PUBLIC "-//W3C//DTD SVG 1.1//EN" "http://www.w3.org/Graphics/SVG/1.1/DTD/svg11.dtd" [
	<!ENTITY ns_extend "http://ns.adobe.com/Extensibility/1.0/">
	<!ENTITY ns_ai "http://ns.adobe.com/AdobeIllustrator/10.0/">
	<!ENTITY ns_graphs "http://ns.adobe.com/Graphs/1.0/">
	<!ENTITY ns_vars "http://ns.adobe.com/Variables/1.0/">
	<!ENTITY ns_imrep "http://ns.adobe.com/ImageReplacement/1.0/">
	<!ENTITY ns_sfw "http://ns.adobe.com/SaveForWeb/1.0/">
	<!ENTITY ns_custom "http://ns.adobe.com/GenericCustomNamespace/1.0/">
	<!ENTITY ns_adobe_xpath "http://ns.adobe.com/XPath/1.0/">
]>
<svg version="1.1" id="Layer_1" xmlns:x="&ns_extend;" xmlns:i="&ns_ai;" xmlns:graph="&ns_graphs;"
	 xmlns="http://www.w3.org/2000/svg" xmlns:xlink="http://www.w3.org/1999/xlink" x="0px" y="0px" width="17.705px"
	 height="14.561px" viewBox="0 0 17.705 14.561" enable-background="new 0 0 17.705 14.561" xml:space="preserve">
<metadata>
	<sfw  xmlns="&ns_sfw;">
		<slices></slices>
		<sliceSourceBounds  height="14.56" width="17.705" x="288" y="413.44" bottomLeftOrigin="true"></sliceSourceBounds>
	</sfw>
</metadata>
<g>
	<polygon fill-rule="evenodd" clip-rule="evenodd" fill="#FFFFFF" points="9.832,6.885 9.832,10.276 8.342,10.276 8.342,8.012 
		6.589,8.012 6.589,10.276 5.099,10.276 5.099,6.885 3.819,6.885 5.643,5.235 7.465,3.585 9.288,5.235 11.111,6.885 9.832,6.885 	
		"/>
	<path fill="#FFFFFF" d="M1.033,3.543c1.032-1.725,2.666-2.868,4.473-3.323c1.806-0.454,3.786-0.219,5.511,0.813
		c1.725,1.032,2.868,2.666,3.322,4.472c0.399,1.585,0.267,3.304-0.469,4.867c0.018,0.009,0.034,0.019,0.051,0.028l3.41,2.039
		c0.364,0.219,0.483,0.695,0.266,1.06l-0.105,0.177c-0.218,0.364-0.694,0.484-1.059,0.267l-3.41-2.04
		c-0.027-0.016-0.052-0.033-0.076-0.052c-1.016,1.263-2.394,2.112-3.891,2.488c-1.807,0.455-3.787,0.22-5.512-0.813
		c-1.726-1.031-2.868-2.665-3.323-4.472C-0.233,7.249,0.002,5.269,1.033,3.543L1.033,3.543z M5.867,1.659
		C4.429,2.021,3.128,2.931,2.306,4.305c-0.821,1.374-1.009,2.95-0.646,4.389c0.361,1.438,1.272,2.739,2.646,3.562
		c1.374,0.821,2.95,1.009,4.39,0.646c1.438-0.361,2.738-1.272,3.561-2.646c0.821-1.374,1.008-2.951,0.646-4.389
		s-1.272-2.74-2.646-3.561C8.882,1.484,7.306,1.297,5.867,1.659L5.867,1.659z"/>
</g>
</svg>
