<?xml version="1.0" encoding="utf-8"?>
<!-- Generator: Adobe Illustrator 16.0.0, SVG Export Plug-In . SVG Version: 6.00 Build 0)  -->
<!DOCTYPE svg PUBLIC "-//W3C//DTD SVG 1.1//EN" "http://www.w3.org/Graphics/SVG/1.1/DTD/svg11.dtd" [
	<!ENTITY ns_extend "http://ns.adobe.com/Extensibility/1.0/">
	<!ENTITY ns_ai "http://ns.adobe.com/AdobeIllustrator/10.0/">
	<!ENTITY ns_graphs "http://ns.adobe.com/Graphs/1.0/">
	<!ENTITY ns_vars "http://ns.adobe.com/Variables/1.0/">
	<!ENTITY ns_imrep "http://ns.adobe.com/ImageReplacement/1.0/">
	<!ENTITY ns_sfw "http://ns.adobe.com/SaveForWeb/1.0/">
	<!ENTITY ns_custom "http://ns.adobe.com/GenericCustomNamespace/1.0/">
	<!ENTITY ns_adobe_xpath "http://ns.adobe.com/XPath/1.0/">
]>
<svg version="1.1" id="Layer_1" xmlns:x="&ns_extend;" xmlns:i="&ns_ai;" xmlns:graph="&ns_graphs;"
	 xmlns="http://www.w3.org/2000/svg" xmlns:xlink="http://www.w3.org/1999/xlink" x="0px" y="0px" width="31.813px"
	 height="31.813px" viewBox="-10.173 -9.78 31.813 31.813" enable-background="new -10.173 -9.78 31.813 31.813"
	 xml:space="preserve">
<metadata>
	<sfw  xmlns="&ns_sfw;">
		<slices></slices>
		<sliceSourceBounds  height="31.813" width="31.813" y="405.47" x="280.325" bottomLeftOrigin="true"></sliceSourceBounds>
	</sfw>
</metadata>
<circle fill="#FFFFFF" cx="5.733" cy="6.126" r="15.906"/>
<g>
	<polygon fill="#5EADB2" points="7.801,5.695 7.801,9.392 6.176,9.392 6.176,6.924 4.265,6.924 4.265,9.392 2.641,9.392 
		2.641,5.695 1.246,5.695 3.234,3.896 5.22,2.099 7.207,3.896 9.193,5.695 	"/>
	<path fill="#5EADB2" d="M-1.791,2.053c1.125-1.881,2.906-3.127,4.875-3.623c1.969-0.495,4.127-0.238,6.007,0.887
		c1.882,1.123,3.128,2.906,3.621,4.875c0.435,1.728,0.292,3.602-0.511,5.306c0.02,0.01,0.036,0.021,0.056,0.029l3.718,2.223
		c0.396,0.24,0.525,0.758,0.289,1.157l-0.112,0.192c-0.239,0.397-0.756,0.528-1.156,0.291l-3.718-2.224
		c-0.027-0.018-0.056-0.034-0.083-0.057c-1.107,1.379-2.608,2.303-4.239,2.713c-1.97,0.496-4.128,0.239-6.009-0.888
		c-1.881-1.122-3.126-2.904-3.622-4.874C-3.171,6.093-2.916,3.934-1.791,2.053L-1.791,2.053z M3.479-0.001
		C1.911,0.393,0.492,1.385-0.403,2.883s-1.101,3.216-0.705,4.784c0.394,1.568,1.387,2.986,2.885,3.885
		c1.498,0.896,3.215,1.1,4.786,0.704c1.566-0.392,2.984-1.385,3.881-2.884c0.896-1.498,1.099-3.218,0.705-4.785
		S9.763,1.601,8.264,0.704S5.047-0.396,3.479-0.001L3.479-0.001z"/>
</g>
</svg>
