<?xml version="1.0" encoding="utf-8"?>
<!-- Generator: Adobe Illustrator 16.0.0, SVG Export Plug-In . SVG Version: 6.00 Build 0)  -->
<!DOCTYPE svg PUBLIC "-//W3C//DTD SVG 1.1//EN" "http://www.w3.org/Graphics/SVG/1.1/DTD/svg11.dtd" [
	<!ENTITY ns_extend "http://ns.adobe.com/Extensibility/1.0/">
	<!ENTITY ns_ai "http://ns.adobe.com/AdobeIllustrator/10.0/">
	<!ENTITY ns_graphs "http://ns.adobe.com/Graphs/1.0/">
	<!ENTITY ns_vars "http://ns.adobe.com/Variables/1.0/">
	<!ENTITY ns_imrep "http://ns.adobe.com/ImageReplacement/1.0/">
	<!ENTITY ns_sfw "http://ns.adobe.com/SaveForWeb/1.0/">
	<!ENTITY ns_custom "http://ns.adobe.com/GenericCustomNamespace/1.0/">
	<!ENTITY ns_adobe_xpath "http://ns.adobe.com/XPath/1.0/">
]>
<svg version="1.1" id="Layer_1" xmlns:x="&ns_extend;" xmlns:i="&ns_ai;" xmlns:graph="&ns_graphs;"
	 xmlns="http://www.w3.org/2000/svg" xmlns:xlink="http://www.w3.org/1999/xlink" x="0px" y="0px" width="14.004px"
	 height="14.004px" viewBox="0 0 14.004 14.004" enable-background="new 0 0 14.004 14.004" xml:space="preserve">
<metadata>
	<sfw  xmlns="&ns_sfw;">
		<slices></slices>
		<sliceSourceBounds  height="14.004" width="14.004" x="290" y="412.996" bottomLeftOrigin="true"></sliceSourceBounds>
	</sfw>
</metadata>
<g>
	<path fill-rule="evenodd" clip-rule="evenodd" fill="#FFFFFF" d="M13.783,8.557h0.221V5.522h-1.982
		c-0.105-0.355-0.246-0.698-0.422-1.024l1.244-1.245L13,3.097L12.844,2.94l-1.832-1.832l-0.156-0.157l-0.158,0.157L9.449,2.358
		c-0.309-0.166-0.633-0.3-0.967-0.4V0H5.448v1.958C5.131,2.053,4.824,2.179,4.53,2.332L3.307,1.109L3.15,0.952L1.004,3.097
		l0.157,0.157l1.196,1.197c-0.177,0.318-0.32,0.653-0.426,0.998H0v3.034h1.91c0.108,0.371,0.259,0.73,0.448,1.07L1.162,10.75
		l-0.157,0.156l0.157,0.158l1.831,1.83l0.157,0.158l0.157-0.158l1.223-1.223c0.315,0.166,0.648,0.299,0.993,0.396v1.936h3.034v-1.98
		c0.307-0.098,0.607-0.223,0.893-0.377l1.406,1.406l0.156-0.158l1.832-1.83L13,10.906l-1.4-1.4c0.164-0.305,0.299-0.623,0.398-0.949
		H13.783L13.783,8.557z M10.109,7.002c0,1.734-1.41,3.145-3.144,3.145s-3.145-1.41-3.145-3.145c0-1.734,1.411-3.145,3.145-3.145
		S10.109,5.268,10.109,7.002L10.109,7.002z"/>
</g>
</svg>
