<?xml version="1.0" encoding="utf-8"?>
<!-- Generator: Adobe Illustrator 16.0.0, SVG Export Plug-In . SVG Version: 6.00 Build 0)  -->
<!DOCTYPE svg PUBLIC "-//W3C//DTD SVG 1.1//EN" "http://www.w3.org/Graphics/SVG/1.1/DTD/svg11.dtd" [
	<!ENTITY ns_extend "http://ns.adobe.com/Extensibility/1.0/">
	<!ENTITY ns_ai "http://ns.adobe.com/AdobeIllustrator/10.0/">
	<!ENTITY ns_graphs "http://ns.adobe.com/Graphs/1.0/">
	<!ENTITY ns_vars "http://ns.adobe.com/Variables/1.0/">
	<!ENTITY ns_imrep "http://ns.adobe.com/ImageReplacement/1.0/">
	<!ENTITY ns_sfw "http://ns.adobe.com/SaveForWeb/1.0/">
	<!ENTITY ns_custom "http://ns.adobe.com/GenericCustomNamespace/1.0/">
	<!ENTITY ns_adobe_xpath "http://ns.adobe.com/XPath/1.0/">
]>
<svg version="1.1" id="Layer_1" xmlns:x="&ns_extend;" xmlns:i="&ns_ai;" xmlns:graph="&ns_graphs;"
	 xmlns="http://www.w3.org/2000/svg" xmlns:xlink="http://www.w3.org/1999/xlink" x="0px" y="0px" width="31.813px"
	 height="31.813px" viewBox="-9.67 -9.764 31.813 31.813" enable-background="new -9.67 -9.764 31.813 31.813" xml:space="preserve"
	>
<metadata>
	<sfw  xmlns="&ns_sfw;">
		<slices></slices>
		<sliceSourceBounds  height="31.813" width="31.813" y="405.453" x="280.828" bottomLeftOrigin="true"></sliceSourceBounds>
	</sfw>
</metadata>
<circle fill="#FFFFFF" cx="6.236" cy="6.143" r="15.906"/>
<g>
	<path fill="#5EADB2" d="M14.771,8.101h0.277V4.281h-2.494c-0.131-0.447-0.311-0.879-0.531-1.289l1.566-1.567l0.195-0.196
		L13.59,1.031l-2.307-2.307l-0.197-0.197l-0.195,0.197L9.318,0.299C8.928,0.09,8.52-0.079,8.1-0.205V-2.67H4.28v2.465
		C3.881-0.086,3.495,0.073,3.124,0.266L1.585-1.273L1.387-1.472l-2.701,2.7l0.198,0.197l1.505,1.507
		c-0.223,0.4-0.403,0.822-0.536,1.257h-2.431v3.817h2.404c0.136,0.468,0.326,0.919,0.563,1.347l-1.505,1.508l-0.198,0.197
		l0.198,0.199l2.305,2.303l0.197,0.197l0.198-0.197l1.539-1.541c0.397,0.209,0.816,0.376,1.25,0.499v2.438h3.819v-2.491
		c0.385-0.125,0.764-0.282,1.125-0.475l1.768,1.769l0.197-0.198l2.307-2.303l0.195-0.199l-1.762-1.763
		c0.207-0.384,0.375-0.785,0.502-1.195H14.771L14.771,8.101z M10.146,6.144c0,2.184-1.773,3.958-3.958,3.958
		c-2.183,0-3.958-1.774-3.958-3.958c0-2.182,1.776-3.958,3.958-3.958C8.373,2.186,10.146,3.962,10.146,6.144L10.146,6.144z"/>
</g>
</svg>
