<?xml version="1.0" encoding="utf-8"?>
<!-- Generator: Adobe Illustrator 16.0.0, SVG Export Plug-In . SVG Version: 6.00 Build 0)  -->
<!DOCTYPE svg PUBLIC "-//W3C//DTD SVG 1.1//EN" "http://www.w3.org/Graphics/SVG/1.1/DTD/svg11.dtd" [
	<!ENTITY ns_extend "http://ns.adobe.com/Extensibility/1.0/">
	<!ENTITY ns_ai "http://ns.adobe.com/AdobeIllustrator/10.0/">
	<!ENTITY ns_graphs "http://ns.adobe.com/Graphs/1.0/">
	<!ENTITY ns_vars "http://ns.adobe.com/Variables/1.0/">
	<!ENTITY ns_imrep "http://ns.adobe.com/ImageReplacement/1.0/">
	<!ENTITY ns_sfw "http://ns.adobe.com/SaveForWeb/1.0/">
	<!ENTITY ns_custom "http://ns.adobe.com/GenericCustomNamespace/1.0/">
	<!ENTITY ns_adobe_xpath "http://ns.adobe.com/XPath/1.0/">
]>
<svg version="1.1" id="Layer_1" xmlns:x="&ns_extend;" xmlns:i="&ns_ai;" xmlns:graph="&ns_graphs;"
	 xmlns="http://www.w3.org/2000/svg" xmlns:xlink="http://www.w3.org/1999/xlink" x="0px" y="0px" width="11.117px"
	 height="13.725px" viewBox="0 0 11.117 13.725" enable-background="new 0 0 11.117 13.725" xml:space="preserve">
<metadata>
	<sfw  xmlns="&ns_sfw;">
		<slices></slices>
		<sliceSourceBounds  height="13.724" width="11.117" x="292" y="413.276" bottomLeftOrigin="true"></sliceSourceBounds>
	</sfw>
</metadata>
<g>
	
		<path fill-rule="evenodd" clip-rule="evenodd" fill="#FFFFFF" stroke="#FFFFFF" stroke-width="0.216" stroke-miterlimit="2.6131" d="
		M5.558,10.165c-0.113,0-0.204-0.091-0.204-0.202V5.386c0-0.113,0.091-0.204,0.204-0.204c0.112,0,0.203,0.091,0.203,0.204v4.577
		C5.761,10.074,5.67,10.165,5.558,10.165L5.558,10.165z"/>
	
		<path fill-rule="evenodd" clip-rule="evenodd" fill="#FFFFFF" stroke="#FFFFFF" stroke-width="0.216" stroke-miterlimit="2.6131" d="
		M7.308,7.338c-0.051,0-0.103-0.021-0.145-0.06L5.558,5.673L3.952,7.278c-0.079,0.079-0.208,0.079-0.287,0
		c-0.08-0.079-0.08-0.206,0-0.286l1.75-1.751c0.079-0.08,0.208-0.08,0.287,0l1.75,1.751c0.079,0.08,0.079,0.207,0,0.286
		C7.411,7.317,7.359,7.338,7.308,7.338L7.308,7.338z"/>
	
		<path fill-rule="evenodd" clip-rule="evenodd" fill="#FFFFFF" stroke="#FFFFFF" stroke-width="0.216" stroke-miterlimit="2.6131" d="
		M9.994,13.616H1.123c-0.559,0-1.015-0.453-1.015-1.015V1.122c0-0.559,0.456-1.014,1.015-1.014h6.443
		c0.111,0,0.202,0.091,0.202,0.202c0,0.113-0.091,0.204-0.202,0.204H1.123c-0.335,0-0.608,0.274-0.608,0.609v11.479
		c0,0.337,0.273,0.611,0.608,0.611h8.872c0.335,0,0.608-0.274,0.608-0.611V3.64c0-0.113,0.092-0.204,0.203-0.204
		c0.112,0,0.203,0.091,0.203,0.204v8.964C11.009,13.163,10.554,13.616,9.994,13.616L9.994,13.616z"/>
	
		<path fill-rule="evenodd" clip-rule="evenodd" fill="#FFFFFF" stroke="#FFFFFF" stroke-width="0.216" stroke-miterlimit="2.6131" d="
		M10.806,3.842h-3.24c-0.113,0-0.204-0.091-0.204-0.202V0.399c0-0.113,0.091-0.205,0.204-0.205c0.111,0,0.202,0.091,0.202,0.205
		v3.037h3.038c0.112,0,0.203,0.091,0.203,0.203C11.009,3.751,10.918,3.842,10.806,3.842L10.806,3.842z"/>
	
		<path fill-rule="evenodd" clip-rule="evenodd" fill="#FFFFFF" stroke="#FFFFFF" stroke-width="0.216" stroke-miterlimit="2.6131" d="
		M10.806,3.842c-0.053,0-0.105-0.02-0.145-0.062L7.419,0.452C7.342,0.373,7.344,0.244,7.423,0.165
		c0.081-0.077,0.21-0.076,0.287,0.004l3.242,3.328c0.077,0.081,0.074,0.21-0.005,0.288C10.908,3.823,10.856,3.842,10.806,3.842
		L10.806,3.842z"/>
</g>
</svg>
