<?xml version="1.0" encoding="utf-8"?>
<!-- Generator: Adobe Illustrator 16.0.0, SVG Export Plug-In . SVG Version: 6.00 Build 0)  -->
<!DOCTYPE svg PUBLIC "-//W3C//DTD SVG 1.1//EN" "http://www.w3.org/Graphics/SVG/1.1/DTD/svg11.dtd" [
	<!ENTITY ns_extend "http://ns.adobe.com/Extensibility/1.0/">
	<!ENTITY ns_ai "http://ns.adobe.com/AdobeIllustrator/10.0/">
	<!ENTITY ns_graphs "http://ns.adobe.com/Graphs/1.0/">
	<!ENTITY ns_vars "http://ns.adobe.com/Variables/1.0/">
	<!ENTITY ns_imrep "http://ns.adobe.com/ImageReplacement/1.0/">
	<!ENTITY ns_sfw "http://ns.adobe.com/SaveForWeb/1.0/">
	<!ENTITY ns_custom "http://ns.adobe.com/GenericCustomNamespace/1.0/">
	<!ENTITY ns_adobe_xpath "http://ns.adobe.com/XPath/1.0/">
]>
<svg version="1.1" id="Layer_1" xmlns:x="&ns_extend;" xmlns:i="&ns_ai;" xmlns:graph="&ns_graphs;"
	 xmlns="http://www.w3.org/2000/svg" xmlns:xlink="http://www.w3.org/1999/xlink" x="0px" y="0px" width="12.211px"
	 height="12.211px" viewBox="0 0 12.211 12.211" enable-background="new 0 0 12.211 12.211" xml:space="preserve">
<metadata>
	<sfw  xmlns="&ns_sfw;">
		<slices></slices>
		<sliceSourceBounds  height="12.211" width="12.211" x="291" y="413.789" bottomLeftOrigin="true"></sliceSourceBounds>
	</sfw>
</metadata>
<g>
	<path fill-rule="evenodd" clip-rule="evenodd" fill="#82D1F5" d="M6.105,0c3.371,0,6.105,2.733,6.105,6.105
		s-2.734,6.105-6.105,6.105C2.734,12.211,0,9.478,0,6.105S2.734,0,6.105,0L6.105,0z"/>
	<path fill-rule="evenodd" clip-rule="evenodd" fill="#178CC2" d="M6.105,1.808c2.373,0,4.297,1.924,4.297,4.298
		c0,2.373-1.924,4.298-4.297,4.298c-2.374,0-4.297-1.925-4.297-4.298C1.808,3.732,3.732,1.808,6.105,1.808L6.105,1.808z"/>
</g>
</svg>
