<?xml version="1.0" encoding="utf-8"?>
<!-- Generator: Adobe Illustrator 16.0.0, SVG Export Plug-In . SVG Version: 6.00 Build 0)  -->
<!DOCTYPE svg PUBLIC "-//W3C//DTD SVG 1.1//EN" "http://www.w3.org/Graphics/SVG/1.1/DTD/svg11.dtd" [
	<!ENTITY ns_extend "http://ns.adobe.com/Extensibility/1.0/">
	<!ENTITY ns_ai "http://ns.adobe.com/AdobeIllustrator/10.0/">
	<!ENTITY ns_graphs "http://ns.adobe.com/Graphs/1.0/">
	<!ENTITY ns_vars "http://ns.adobe.com/Variables/1.0/">
	<!ENTITY ns_imrep "http://ns.adobe.com/ImageReplacement/1.0/">
	<!ENTITY ns_sfw "http://ns.adobe.com/SaveForWeb/1.0/">
	<!ENTITY ns_custom "http://ns.adobe.com/GenericCustomNamespace/1.0/">
	<!ENTITY ns_adobe_xpath "http://ns.adobe.com/XPath/1.0/">
]>
<svg version="1.1" id="Layer_1" xmlns:x="&ns_extend;" xmlns:i="&ns_ai;" xmlns:graph="&ns_graphs;"
	 xmlns="http://www.w3.org/2000/svg" xmlns:xlink="http://www.w3.org/1999/xlink" x="0px" y="0px" width="9px" height="10.417px"
	 viewBox="0 0 9 10.417" enable-background="new 0 0 9 10.417" xml:space="preserve">
<metadata>
	<sfw  xmlns="&ns_sfw;">
		<slices></slices>
		<sliceSourceBounds  height="10.417" width="9" x="292" y="415.583" bottomLeftOrigin="true"></sliceSourceBounds>
	</sfw>
</metadata>
<g>
	<polygon fill-rule="evenodd" clip-rule="evenodd" fill="#006999" points="0,0 9,0 9,8.101 6.07,8.101 5.376,9.123 4.5,10.417 
		3.624,9.123 2.93,8.101 0,8.101 0,0 	"/>
	<path fill="#FFFFFF" d="M4.373,5.445C4.371,5.368,4.37,5.309,4.37,5.271c0-0.229,0.032-0.426,0.098-0.592
		c0.047-0.126,0.124-0.252,0.23-0.38c0.077-0.093,0.218-0.228,0.42-0.406s0.333-0.32,0.394-0.426
		c0.061-0.107,0.091-0.223,0.091-0.349c0-0.228-0.089-0.428-0.266-0.602C5.159,2.343,4.942,2.257,4.685,2.257
		c-0.249,0-0.456,0.079-0.622,0.235C3.896,2.649,3.788,2.894,3.735,3.227L3.138,3.154c0.054-0.444,0.213-0.785,0.48-1.021
		c0.267-0.236,0.619-0.354,1.057-0.354c0.464,0,0.834,0.126,1.11,0.379c0.275,0.253,0.414,0.561,0.414,0.92
		c0,0.208-0.049,0.4-0.145,0.575c-0.098,0.176-0.289,0.389-0.573,0.64C5.292,4.461,5.167,4.585,5.109,4.665
		C5.051,4.745,5.007,4.836,4.979,4.94C4.952,5.043,4.936,5.211,4.931,5.445H4.373L4.373,5.445z M4.267,6.614V5.95h0.665v0.664H4.267
		L4.267,6.614z"/>
</g>
</svg>
