<?xml version="1.0" encoding="utf-8"?>
<!-- Generator: Adobe Illustrator 16.0.0, SVG Export Plug-In . SVG Version: 6.00 Build 0)  -->
<!DOCTYPE svg PUBLIC "-//W3C//DTD SVG 1.1//EN" "http://www.w3.org/Graphics/SVG/1.1/DTD/svg11.dtd" [
	<!ENTITY ns_extend "http://ns.adobe.com/Extensibility/1.0/">
	<!ENTITY ns_ai "http://ns.adobe.com/AdobeIllustrator/10.0/">
	<!ENTITY ns_graphs "http://ns.adobe.com/Graphs/1.0/">
	<!ENTITY ns_vars "http://ns.adobe.com/Variables/1.0/">
	<!ENTITY ns_imrep "http://ns.adobe.com/ImageReplacement/1.0/">
	<!ENTITY ns_sfw "http://ns.adobe.com/SaveForWeb/1.0/">
	<!ENTITY ns_custom "http://ns.adobe.com/GenericCustomNamespace/1.0/">
	<!ENTITY ns_adobe_xpath "http://ns.adobe.com/XPath/1.0/">
]>
<svg version="1.1" id="Layer_1" xmlns:x="&ns_extend;" xmlns:i="&ns_ai;" xmlns:graph="&ns_graphs;"
	 xmlns="http://www.w3.org/2000/svg" xmlns:xlink="http://www.w3.org/1999/xlink" x="0px" y="0px" width="9px" height="10.417px"
	 viewBox="0 0 9 10.417" enable-background="new 0 0 9 10.417" xml:space="preserve">
<metadata>
	<sfw  xmlns="&ns_sfw;">
		<slices></slices>
		<sliceSourceBounds  height="10.417" width="9" x="293" y="415.583" bottomLeftOrigin="true"></sliceSourceBounds>
	</sfw>
</metadata>
<g>
	<polygon fill-rule="evenodd" clip-rule="evenodd" fill="#006999" points="0,0 9,0 9,8.1 6.07,8.1 5.377,9.123 4.5,10.417 
		3.623,9.123 2.93,8.1 0,8.1 0,0 	"/>
	<path fill="#FFFFFF" d="M4.737,5.206H4.273L4.049,1.539H4.96L4.737,5.206L4.737,5.206z M3.969,6.236c0-0.313,0.176-0.47,0.53-0.47
		c0.169,0,0.3,0.04,0.394,0.121c0.092,0.08,0.138,0.198,0.138,0.349c0,0.147-0.046,0.262-0.142,0.344
		c-0.093,0.081-0.224,0.123-0.39,0.123c-0.154,0-0.28-0.037-0.379-0.109C4.019,6.521,3.969,6.402,3.969,6.236L3.969,6.236z"/>
</g>
</svg>
