<?xml version="1.0" encoding="utf-8"?>
<!-- Generator: Adobe Illustrator 16.0.0, SVG Export Plug-In . SVG Version: 6.00 Build 0)  -->
<!DOCTYPE svg PUBLIC "-//W3C//DTD SVG 1.1//EN" "http://www.w3.org/Graphics/SVG/1.1/DTD/svg11.dtd" [
	<!ENTITY ns_extend "http://ns.adobe.com/Extensibility/1.0/">
	<!ENTITY ns_ai "http://ns.adobe.com/AdobeIllustrator/10.0/">
	<!ENTITY ns_graphs "http://ns.adobe.com/Graphs/1.0/">
	<!ENTITY ns_vars "http://ns.adobe.com/Variables/1.0/">
	<!ENTITY ns_imrep "http://ns.adobe.com/ImageReplacement/1.0/">
	<!ENTITY ns_sfw "http://ns.adobe.com/SaveForWeb/1.0/">
	<!ENTITY ns_custom "http://ns.adobe.com/GenericCustomNamespace/1.0/">
	<!ENTITY ns_adobe_xpath "http://ns.adobe.com/XPath/1.0/">
]>
<svg version="1.1" id="Layer_1" xmlns:x="&ns_extend;" xmlns:i="&ns_ai;" xmlns:graph="&ns_graphs;"
	 xmlns="http://www.w3.org/2000/svg" xmlns:xlink="http://www.w3.org/1999/xlink" x="0px" y="0px" width="12.24px" height="12.24px"
	 viewBox="0 0 12.24 12.24" enable-background="new 0 0 12.24 12.24" xml:space="preserve">
<metadata>
	<sfw  xmlns="&ns_sfw;">
		<slices></slices>
		<sliceSourceBounds  height="12.24" width="12.24" x="291" y="413.76" bottomLeftOrigin="true"></sliceSourceBounds>
	</sfw>
</metadata>
<g>
	<path fill-rule="evenodd" clip-rule="evenodd" fill="#70C97D" d="M6.12,0c3.38,0,6.12,2.74,6.12,6.12s-2.74,6.12-6.12,6.12
		S0,9.5,0,6.12S2.74,0,6.12,0L6.12,0z"/>
	<path fill-rule="evenodd" clip-rule="evenodd" fill="#36823D" d="M6.12,1.578c2.509,0,4.542,2.033,4.542,4.542
		s-2.033,4.542-4.542,4.542S1.578,8.629,1.578,6.12S3.611,1.578,6.12,1.578L6.12,1.578z"/>
	<path fill-rule="evenodd" clip-rule="evenodd" fill="#F5F5F7" d="M8.157,3.96l-2.85,2.85L4.264,5.767
		c-0.191-0.192-0.503-0.192-0.695,0c-0.192,0.192-0.192,0.504,0,0.696l1.39,1.391c0.097,0.096,0.222,0.145,0.348,0.145
		c0.125,0,0.251-0.049,0.348-0.145l3.197-3.198c0.192-0.192,0.192-0.503,0-0.695C8.661,3.769,8.35,3.769,8.157,3.96L8.157,3.96z"/>
</g>
</svg>
