<?xml version="1.0" encoding="utf-8"?>
<!-- Generator: Adobe Illustrator 16.0.0, SVG Export Plug-In . SVG Version: 6.00 Build 0)  -->
<!DOCTYPE svg PUBLIC "-//W3C//DTD SVG 1.1//EN" "http://www.w3.org/Graphics/SVG/1.1/DTD/svg11.dtd" [
	<!ENTITY ns_extend "http://ns.adobe.com/Extensibility/1.0/">
	<!ENTITY ns_ai "http://ns.adobe.com/AdobeIllustrator/10.0/">
	<!ENTITY ns_graphs "http://ns.adobe.com/Graphs/1.0/">
	<!ENTITY ns_vars "http://ns.adobe.com/Variables/1.0/">
	<!ENTITY ns_imrep "http://ns.adobe.com/ImageReplacement/1.0/">
	<!ENTITY ns_sfw "http://ns.adobe.com/SaveForWeb/1.0/">
	<!ENTITY ns_custom "http://ns.adobe.com/GenericCustomNamespace/1.0/">
	<!ENTITY ns_adobe_xpath "http://ns.adobe.com/XPath/1.0/">
]>
<svg version="1.1" id="Layer_1" xmlns:x="&ns_extend;" xmlns:i="&ns_ai;" xmlns:graph="&ns_graphs;"
	 xmlns="http://www.w3.org/2000/svg" xmlns:xlink="http://www.w3.org/1999/xlink" x="0px" y="0px" width="103.398px"
	 height="103.561px" viewBox="0 0 103.398 103.561" enable-background="new 0 0 103.398 103.561" xml:space="preserve">
<metadata>
	<sfw  xmlns="&ns_sfw;">
		<slices></slices>
		<sliceSourceBounds  height="103.561" width="103.461" y="368.939" x="245.5" bottomLeftOrigin="true"></sliceSourceBounds>
	</sfw>
</metadata>
<g>
	<g>
		<defs>
			<rect id="SVGID_1_" x="0.5" y="0.5" width="102.961" height="103"/>
		</defs>
		<clipPath id="SVGID_2_">
			<use xlink:href="#SVGID_1_"  overflow="visible"/>
		</clipPath>
		<path clip-path="url(#SVGID_2_)" fill="#652061" stroke="#FFFFFF" stroke-miterlimit="10" d="M6.898,90.102v-76.8
			c0-3.531,2.875-6.403,6.403-6.403h64c3.531,0,6.398,2.872,6.398,6.403v37.625l6.402-6.403V13.301
			C90.102,6.23,84.367,0.5,77.301,0.5h-64C6.23,0.5,0.5,6.23,0.5,13.301v76.8c0,7.066,5.73,12.797,12.801,12.797H48.5V96.5H13.301
			C9.773,96.5,6.898,93.633,6.898,90.102L6.898,90.102z M70.898,19.699H19.699v6.403h51.199V19.699z M70.898,32.5H19.699v6.398
			h51.199V32.5z M70.898,45.301H19.699v6.398h51.199V45.301z M19.699,64.5h25.602v-6.398H19.699V64.5z M101.023,58.102L96.5,53.574
			c-1.25-1.25-2.887-1.875-4.523-1.875c-1.641,0-3.277,0.625-4.527,1.875L59.977,81.051c-1.25,1.25-5.078,6.082-5.078,7.723
			l-3.2,14.125l14.125-3.199c0,0,6.477-3.824,7.727-5.074l27.473-27.477C103.523,64.652,103.523,60.598,101.023,58.102
			L101.023,58.102z M71.293,92.355c-0.363,0.344-1.617,1.191-3.148,2.168l-8.289-8.293c0.852-1.164,1.797-2.336,2.383-2.918
			l20.688-20.688l9.051,9.051L71.293,92.355z M71.293,92.355"/>
	</g>
</g>
</svg>
